<svg viewBox="0 0 64 64" xmlns="http://www.w3.org/2000/svg" fill="none">
  <rect width="64" height="64" rx="14" fill="#f6f4ef"/>
  <g transform="scale(0.82) translate(7 7)">
    <circle cx="32" cy="32" r="24.5" stroke="#1c1917" stroke-width="2.6"/>
    <g stroke="#1c1917" stroke-width="2.6" stroke-linecap="round">
      <line x1="32" y1="3.5" x2="32" y2="11.5"/>
      <line x1="32" y1="52.5" x2="32" y2="60.5"/>
      <line x1="3.5" y1="32" x2="11.5" y2="32"/>
      <line x1="52.5" y1="32" x2="60.5" y2="32"/>
    </g>
    <path d="M32 13 L34.5 32 L32 51 L29.5 32 Z" fill="#cabfb0"/>
    <path d="M13 32 L32 29.5 L51 32 L32 34.5 Z" fill="#cabfb0"/>
    <g transform="rotate(38 32 32)">
      <polygon points="32,16 35.5,32 28.5,32" fill="#b85c1e"/>
      <polygon points="32,48 35.5,32 28.5,32" fill="#1c1917"/>
    </g>
    <circle cx="32" cy="32" r="4" fill="#f6f4ef" stroke="#1c1917" stroke-width="2"/>
    <circle cx="32" cy="32" r="1.5" fill="#1c1917"/>
  </g>
</svg>
